# File created by Blade
# Date/Time:  Thu Jan 22 16:25:48 2015
# Frame Rate: 120.000 fps
#------------------------------------------------------
:FULLY-SPECIFIED
:DEGREES
497
root 0.474126 39.987775 7.140766 62.160228 16.021856 51.331607
RightUpLeg -35.842421 -23.924435 -42.821961
RightLeg 7.973080 -0.000000 -0.000000
RightFoot -12.233355 -34.664731 12.857768
RightToeBase 6.441493 -0.000000 -0.000000
LeftUpLeg 12.492432 -29.488502 9.686611
LeftLeg 136.500108 -0.000000 -0.000000
LeftFoot 18.127449 15.317350 -27.010252
LeftToeBase 3.043565 -0.000000 -0.000000
Spine 18.143571 -7.996900 -10.178023
RightShoulder -11.614089 1.440132 -51.480130
RightArm 26.004486 50.053176 16.902793
RightForeArm 4.353452 -0.000000 17.689834
RightHand 9.160027 -0.000000 -19.136856
RightHandThumb1 -24.326973 -0.000000 -32.862282
LeftShoulder -35.567648 34.528560 -14.900358
LeftArm 25.718004 -19.057764 -80.238281
LeftForeArm 50.476674 -0.000000 12.980382
LeftHand -14.597564 0.000000 -21.632778
LeftHandThumb1 -26.253704 0.000000 33.147579
Head -14.816658 -24.093187 -17.136966
498
root 0.506794 39.988472 7.139829 62.287896 16.319135 51.631129
RightUpLeg -35.463612 -23.610630 -43.281684
RightLeg 8.335201 -0.000000 -0.000000
RightFoot -12.844580 -35.095560 13.430463
RightToeBase 6.494121 -0.000000 -0.000000
LeftUpLeg 12.360951 -29.631469 10.034810
LeftLeg 136.704160 -0.000000 -0.000000
LeftFoot 18.165413 15.275082 -26.651280
LeftToeBase 2.912785 -0.000000 -0.000000
Spine 18.083485 -8.249751 -9.836033
RightShoulder -11.610532 1.339947 -51.393920
RightArm 26.035718 50.086738 16.752916
RightForeArm 4.317383 -0.000000 17.752688
RightHand 9.019191 0.000000 -19.211799
RightHandThumb1 -24.326973 -0.000000 -32.862282
LeftShoulder -35.507574 34.599164 -14.792920
LeftArm 25.641747 -18.885356 -80.404183
LeftForeArm 50.284706 0.000000 12.975581
LeftHand -14.552729 -0.000000 -21.888354
LeftHandThumb1 -26.253704 0.000000 33.147579
Head -14.715146 -24.109048 -17.196271
499
root 0.540157 39.987878 7.139078 62.415656 16.662548 51.951879
RightUpLeg -35.047104 -23.250122 -43.772883
RightLeg 8.762257 -0.000000 -0.000000
RightFoot -13.566170 -35.474737 14.217931
RightToeBase 6.563946 -0.000000 -0.000000
LeftUpLeg 12.219097 -29.814644 10.397892
LeftLeg 136.935981 -0.000000 -0.000000
LeftFoot 18.189393 15.275204 -26.465446
LeftToeBase 2.711012 -0.000000 -0.000000
Spine 18.031117 -8.530426 -9.438415
RightShoulder -11.572712 1.297909 -51.350448
RightArm 25.927415 50.074906 16.530034
RightForeArm 4.281689 0.000000 17.874012
RightHand 8.921622 -0.000000 -19.205879
RightHandThumb1 -24.326973 -0.000000 -32.862282
LeftShoulder -35.536187 34.675540 -14.768633
LeftArm 25.690389 -18.682489 -80.579879
LeftForeArm 50.091948 0.000000 12.903651
LeftHand -14.560569 0.000000 -22.191894
LeftHandThumb1 -26.253704 0.000000 33.147579
Head -14.633758 -24.156549 -17.273350
500
root 0.573192 39.981850 7.141281 62.528432 17.032286 52.221103
RightUpLeg -34.692497 -22.887706 -44.165415
RightLeg 9.240175 -0.000000 -0.000000
RightFoot -14.332250 -35.799861 15.012210
RightToeBase 6.610668 -0.000000 -0.000000
LeftUpLeg 12.082107 -29.961534 10.801985
LeftLeg 137.157665 -0.000000 -0.000000
LeftFoot 18.272856 15.197525 -26.099501
LeftToeBase 2.699505 -0.000000 -0.000000
Spine 17.951632 -8.771590 -8.972583
RightShoulder -11.549005 1.227308 -51.334042
RightArm 25.949222 50.192905 16.503276
RightForeArm 4.333909 -0.000000 18.034014
RightHand 8.921037 0.000000 -19.383050
RightHandThumb1 -24.326973 -0.000000 -32.862282
LeftShoulder -35.576608 34.768790 -14.772718
LeftArm 25.768987 -18.458340 -80.760606
LeftForeArm 49.938770 0.000000 12.812326
LeftHand -14.499671 -0.000000 -22.419695
LeftHandThumb1 -26.253704 0.000000 33.147579
Head -14.547297 -24.184503 -17.362821
501
root 0.607705 39.972945 7.145508 62.628140 17.417062 52.457561
RightUpLeg -34.412975 -22.582670 -44.458321
RightLeg 9.797336 -0.000000 -0.000000
RightFoot -15.067989 -35.976232 15.705731
RightToeBase 6.620879 -0.000000 -0.000000
LeftUpLeg 11.950187 -30.083166 11.210138
LeftLeg 137.384203 -0.000000 -0.000000
LeftFoot 18.350390 15.112675 -25.823772
LeftToeBase 2.619479 -0.000000 -0.000000
Spine 17.856233 -8.948282 -8.452954
RightShoulder -11.543926 1.155205 -51.304137
RightArm 26.058968 50.417589 16.572060
RightForeArm 4.106037 -0.000000 18.195808
RightHand 8.868101 -0.000000 -19.441099
RightHandThumb1 -24.326973 -0.000000 -32.862282
LeftShoulder -35.523198 34.811184 -14.696101
LeftArm 25.729552 -18.232532 -80.933281
LeftForeArm 49.742056 -0.000000 12.777143
LeftHand -14.431749 -0.000000 -22.603541
LeftHandThumb1 -26.253704 0.000000 33.147579
Head -14.458338 -24.223958 -17.454289
